<svg width="56" height="56" xmlns="http://www.w3.org/2000/svg"><g id="CBP-Creation-V2--(Latest-Version)" stroke="none" stroke-width="1" fill="none" fill-rule="evenodd"><g id="ACBP-Creation---listing-screen-20-Copy-2" transform="translate(-692 -309)"><g id="Group-14" transform="translate(407 285)"><g id="Icons/action/radio_on-Copy" transform="translate(285 24)"><path d="M25.667 16.333h4.666V21h-4.666v-4.667zm0 9.334h4.666v14h-4.666v-14zm2.333-21C15.12 4.667 4.667 15.12 4.667 28 4.667 40.88 15.12 51.333 28 51.333c12.88 0 23.333-10.453 23.333-23.333C51.333 15.12 40.88 4.667 28 4.667zm0 42C17.71 46.667 9.333 38.29 9.333 28 9.333 17.71 17.71 9.333 28 9.333c10.29 0 18.667 8.377 18.667 18.667 0 10.29-8.377 18.667-18.667 18.667z" id="Shape" fill="#EF951E"/></g></g></g></g></svg>